<?xml version="1.0" encoding="utf-8"?>
<!-- Generator: Adobe Illustrator 22.1.0, SVG Export Plug-In . SVG Version: 6.00 Build 0)  -->
<svg version="1.1" id="Layer_1" xmlns="http://www.w3.org/2000/svg" xmlns:xlink="http://www.w3.org/1999/xlink" x="0px" y="0px"
	 viewBox="0 0 580 102" style="enable-background:new 0 0 580 102;" xml:space="preserve">
<style type="text/css">
	.st0{fill:#70EA87;}
	.st1{fill:#FFFFFF;}
</style>
<g>
	<path class="st0" d="M61.4,26.1c-0.3,4.6-0.8,10-0.8,16.1v29c0,10.9-2.9,16.9-8.9,20.9c-5.4,3.5-13.1,5.6-24,5.6
		c-6.8,0-13.1-0.8-18.4-2.4L13,84.8c3.8,1.1,8.4,2.2,14.2,2.2c10,0,13.9-4.6,13.9-12.4v-3.1h-0.3c-2.6,3.2-7.7,5.1-13.3,5.1
		c-16.6,0-23.1-12.5-23.1-24.6c0-16.9,11.2-26.7,24.9-26.7c5.9,0,10.7,2.1,13.6,5.9h0.3l1.1-5.1H61.4z M41,44.6
		c0-1.4-0.3-2.7-0.8-3.7c-0.9-2.2-3-4.2-6.3-4.2c-7.1,0-10,6.6-10,15c0,9.5,3.9,14.2,9.5,14.2c2.6,0,5.1-0.9,6.6-3.6
		c0.6-1.1,0.9-2.7,0.9-4.1V44.6z"/>
	<path class="st0" d="M70.4,41.3c0-5.1-0.3-10.6-0.6-15.3H87l1.1,7.4h0.5c3.3-5.4,9.2-8.2,14.6-8.2c2,0,3,0,4.2,0.2V39
		c-1.2-0.2-2.6-0.2-4.2-0.2c-4.2,0-9.8,2-12.1,7.3c-0.5,1.1-0.8,2.9-0.8,5.1v25.8H70.4V41.3z"/>
	<path class="st0" d="M164.4,51.3c0,21.2-17,26.4-28.2,26.4c-17.6,0-28.2-9.6-28.2-26.1c0-18.3,13.9-26.4,28.5-26.4
		C153.8,25.2,164.4,35.3,164.4,51.3z M127.6,51.3c0,8.7,2,16,9,16c6.3,0,8-8.5,8-16c0-7-1.7-15.8-8.3-15.8
		C129.1,35.5,127.6,44.4,127.6,51.3z"/>
	<path class="st0" d="M185.3,26.1l3.9,21.9c1.1,5.5,2,10.6,2.6,15.4h0.5c1.2-4.8,2.7-10.4,4.1-15.2l6.5-22.1H218l6.3,21.6
		c1.5,5.7,2.9,10.7,3.8,15.7h0.5c0.5-4.8,1.4-10.1,2.6-15.6l4.5-21.7h19.5l-19,50.8h-16.7l-5.6-17.8c-1.5-4.7-2.9-10.1-3.8-15.9
		h-0.3c-0.9,5.9-2.6,11.2-4.2,16l-6.3,17.7h-16.9l-18.1-50.8H185.3z"/>
	<path class="st1" d="M247,96.8l14.9-54c1.7-6,2.9-11.7,3.9-16.7H282l-1.2,7.4h0.3c4.5-5.1,11.6-8.2,18.4-8.2
		c13.3,0,15.8,7.9,15.8,15.7c0,17-13.3,36.8-34.8,36.8c-3.3,0-6.9-0.4-9-1.2H271l-5.4,20.4H247z M273.7,66.8c1.5,0.7,3,1.2,5.3,1.2
		c11.5,0,17-17.2,17-24.8c0-3.4-0.5-7-5.4-7c-4.8,0-10,5.3-11.8,11.4L273.7,66.8z"/>
	<path class="st1" d="M351.3,76.9c0.2-2.7,0.5-5.5,0.6-8.5h-0.5c-5.9,6.8-13,9.4-18.8,9.4c-10.7,0-16-6.3-16-15.3
		c0-15.4,11.2-37.2,42.8-37.2c7.4,0,14.8,0.8,19.3,2.1l-8.1,28.3c-1.8,5.9-3.2,15.8-3,21.3H351.3z M358.1,35.2
		c-1.5-0.2-2.9-0.3-3.9-0.3c-12.4,0-19,16.9-19.2,24.4c0,4.5,0.9,7.7,5.6,7.7c5.1,0,10-5.8,12.7-15.1L358.1,35.2z"/>
	<path class="st1" d="M413.9,76.2c-2.1,0.6-6.9,1.4-13.1,1.4c-16.3,0-23.1-8.9-23.1-18.3c0-18.2,16.4-33.9,39.7-33.9
		c4.5,0,7.4,0.4,9.2,0.9l-4.7,10.6c-1.8-0.3-3.6-0.5-5.3-0.5c-11,0-20.1,10.2-20.1,21c0,5.8,3.5,9.6,9.7,9.6c3.5,0,6.6-0.7,9-1.1
		L413.9,76.2z"/>
	<path class="st1" d="M417.4,76.9L437.1,5h18.4l-11.6,42.1h0.3c1.8-2.1,3.6-4.2,5.3-6l13.6-15h20.2l-23.7,22.4l11.2,28.4h-19.3
		L444.8,55l-4.4,4.4l-4.8,17.6H417.4z"/>
	<path class="st1" d="M521.3,74.7c-6.5,1.9-12.8,2.8-21.3,2.8c-18.1,0-25-8.2-25-19.1c0-14.8,11.9-33.1,35.4-33.1
		c13.4,0,19.5,6.9,19.6,13.8c0,13.9-16.3,19.1-36.8,18.7c-0.2,1.5,0,4.1,1.7,5.9c1.8,2.1,5.1,3.6,10.3,3.6c6.2,0,10.6-1,14.9-2.5
		L521.3,74.7z M508,35.6c-5.7,0-10.9,5.1-13,12.4c10,0.3,18.2-2.4,18.2-7.7C513.3,37.4,511.6,35.6,508,35.6z"/>
	<path class="st1" d="M525.9,76.9l9.5-34.5c1.7-5.8,2.7-11.6,3.8-16.3h16.1c-0.3,2.6-0.6,5.3-1.1,8.4h0.5c5.4-6.4,12.1-9.2,18.2-9.2
		c1.2,0,2.1,0,3,0.2l-3.5,13c-0.8,0-2.1-0.1-3.2-0.1c-8.1,0-15.8,6.4-18.1,15.1l-6.5,23.5H525.9z"/>
</g>
</svg>
